<?xml version="1.0" encoding="utf-8"?>
<!-- Generator: Adobe Illustrator 17.0.0, SVG Export Plug-In . SVG Version: 6.00 Build 0)  -->
<!DOCTYPE svg PUBLIC "-//W3C//DTD SVG 1.1//EN" "http://www.w3.org/Graphics/SVG/1.1/DTD/svg11.dtd">
<svg version="1.1" id="Layer_1" xmlns="http://www.w3.org/2000/svg" xmlns:xlink="http://www.w3.org/1999/xlink" x="0px" y="0px"
	 width="176.578px" height="29.86px" viewBox="188.262 31.296 176.578 29.86" enable-background="new 188.262 31.296 176.578 29.86"
	 xml:space="preserve">
<g>
	<rect x="252.048" y="32.497" fill="#ADADAD" width="1.607" height="28.659"/>
	<path fill="#3F3F3F" d="M269.464,38.098c0-1.202,0.594-2.503,1.853-2.503c0.848,0,0.976,0.665,0.976,1.442v4.299h1.796v-3.238
		c0-1.259,0.608-2.503,1.839-2.503c0.82,0,0.99,0.622,0.99,1.442v4.299h1.782v-4.638c0-1.895-0.849-2.744-2.362-2.744
		c-1.132,0-2.065,0.736-2.461,1.485h-0.028c-0.297-0.976-1.004-1.485-2.093-1.485c-1.132,0-2.022,0.82-2.362,1.527h-0.028
		c0,0,0.028-0.226,0.028-0.509v-0.849h-1.725v7.212h1.796V38.098L269.464,38.098z"/>
	<path fill="#3F3F3F" d="M284.085,41.506c2.192,0,3.96-1.556,3.96-3.776c0-2.206-1.768-3.776-3.974-3.776
		c-2.178,0-3.945,1.57-3.945,3.776C280.125,39.951,281.893,41.506,284.085,41.506z M284.085,35.482c1.174,0,2.15,0.919,2.15,2.249
		c0,1.344-0.976,2.249-2.15,2.249c-1.174,0-2.135-0.905-2.135-2.249C281.949,36.401,282.911,35.482,284.085,35.482z"/>
	<path fill="#3F3F3F" d="M293.29,41.337l2.588-7.212h-1.895l-1.499,4.469c-0.127,0.424-0.255,1.089-0.255,1.089h-0.028
		c0,0-0.127-0.665-0.255-1.089l-1.499-4.469h-1.895l2.616,7.212H293.29z"/>
	<rect x="297.037" y="31.296" fill="#3F3F3F" width="1.796" height="1.598"/>
	<rect x="297.037" y="34.124" fill="#3F3F3F" width="1.796" height="7.212"/>
	<path fill="#3F3F3F" d="M302.551,37.957c0-1.301,0.806-2.362,2.079-2.362c0.905,0,1.132,0.594,1.132,1.471v4.271h1.796v-4.638
		c0-1.909-0.919-2.744-2.517-2.744c-1.457,0-2.263,0.919-2.56,1.527h-0.028c0,0,0.028-0.226,0.028-0.509v-0.849h-1.725v7.212h1.796
		L302.551,37.957L302.551,37.957z"/>
	<path fill="#3F3F3F" d="M312.237,41.195c0.962,0,1.598-0.368,2.022-1.004h0.028c0,0-0.028,0.212-0.028,0.382v0.452
		c0,1.287-0.934,1.753-2.037,1.753c-0.707,0-1.414-0.183-1.994-0.467l-0.551,1.372c0.707,0.368,1.669,0.622,2.574,0.622
		c1.881,0,3.804-0.933,3.804-3.408v-6.774h-1.697v0.58c0,0.113,0.028,0.198,0.028,0.198h-0.042c-0.481-0.665-1.344-0.948-2.15-0.948
		c-2.079,0-3.182,1.612-3.182,3.592C309.013,39.527,310.173,41.195,312.237,41.195z M312.52,35.482c0.962,0,1.782,0.438,1.782,2.079
		c0,1.626-0.82,2.122-1.669,2.122c-1.174,0-1.81-0.933-1.81-2.192C310.823,36.274,311.431,35.482,312.52,35.482z"/>
	<path fill="#3F3F3F" d="M208.726,52.861h-0.037h-4.678h-0.003c-1.249,0.777-2.716,1.225-4.283,1.225
		c-4.549,0-8.249-3.773-8.249-8.41s3.701-8.41,8.249-8.41v-3.214c-6.321,0-11.463,5.215-11.463,11.624S193.404,57.3,199.725,57.3
		c2.49,0,4.795-0.811,6.676-2.184l2.935,2.768h4.678l-5.305-5.003C208.715,52.874,208.72,52.868,208.726,52.861z"/>
	<path fill="#ADADAD" d="M207.974,45.676c0,3.039-1.59,5.707-3.966,7.185h0.003h4.678h0.037c1.54-1.979,2.462-4.474,2.462-7.185
		c0-6.409-5.142-11.624-11.463-11.624v3.214C204.273,37.266,207.974,41.039,207.974,45.676z"/>
	<path fill="#3F3F3F" d="M234.967,52.861h-0.037h-4.678h-0.003c-1.249,0.777-2.716,1.225-4.283,1.225
		c-4.549,0-8.249-3.773-8.249-8.41s3.701-8.41,8.249-8.41v-3.214c-6.321,0-11.463,5.215-11.463,11.624S219.646,57.3,225.967,57.3
		c2.49,0,4.795-0.811,6.676-2.184l2.935,2.768h4.678l-5.304-5.003C234.956,52.874,234.962,52.868,234.967,52.861z"/>
	<path fill="#ADADAD" d="M234.216,45.676c0,3.039-1.59,5.707-3.966,7.185h0.003h4.678h0.037c1.54-1.979,2.462-4.474,2.462-7.185
		c0-6.409-5.142-11.624-11.463-11.624v3.214C230.515,37.266,234.216,41.039,234.216,45.676z"/>
</g>
<g>
	<path fill="#3FBAC2" d="M272.844,47.122c1.605,0,3.33,0.518,4.521,1.674l-1.07,1.656c-0.863-0.742-2.157-1.294-3.348-1.294
		c-2.692,0-4.107,1.95-4.107,4.211c0,2.295,1.467,4.383,4.124,4.383c1.311,0,2.623-0.639,3.555-1.553l1.173,1.605
		c-1.052,1.07-2.623,1.984-4.814,1.984c-3.848,0-6.333-2.779-6.333-6.385C266.546,49.848,269.151,47.122,272.844,47.122z"/>
	<path fill="#3FBAC2" d="M284.904,47.122c3.71,0,6.333,2.744,6.333,6.247c0,3.606-2.623,6.419-6.333,6.419
		c-3.71,0-6.333-2.813-6.333-6.419C278.572,49.866,281.194,47.122,284.904,47.122z M284.904,57.752c2.347,0,4.038-1.898,4.038-4.383
		c0-2.381-1.691-4.211-4.038-4.211c-2.347,0-4.038,1.83-4.038,4.211C280.866,55.853,282.558,57.752,284.904,57.752z"/>
	<path fill="#3FBAC2" d="M294.013,47.329h2.364l2.416,6.057c0.276,0.725,0.604,1.795,0.604,1.795h0.034c0,0,0.328-1.07,0.604-1.795
		l2.416-6.057h2.364l1.001,12.252h-2.226l-0.501-6.851c-0.069-0.811-0.017-1.898-0.017-1.898h-0.034c0,0-0.397,1.191-0.673,1.898
		l-1.985,4.746h-1.933l-1.984-4.746c-0.276-0.707-0.673-1.915-0.673-1.915h-0.034c0,0,0.052,1.105-0.017,1.915l-0.501,6.851h-2.226
		L294.013,47.329z"/>
	<path fill="#3FBAC2" d="M308.317,47.329h4.728c2.295,0,3.9,1.605,3.9,3.986c0,2.381-1.605,4.038-3.9,4.038h-2.502v4.228h-2.226
		V47.329z M312.631,53.42c1.294,0,2.054-0.828,2.054-2.106c0-1.259-0.759-2.071-2.019-2.071h-2.122v4.176H312.631z"/>
	<path fill="#3FBAC2" d="M321.205,47.329h2.347l4.297,12.252h-2.278l-1.052-3.14h-4.297l-1.035,3.14h-2.278L321.205,47.329z
		 M323.966,54.628l-1.087-3.279c-0.207-0.69-0.483-1.898-0.483-1.898h-0.034c0,0-0.276,1.208-0.483,1.898l-1.105,3.279H323.966z"/>
	<path fill="#3FBAC2" d="M329.469,47.329h2.226l4.641,7.075c0.449,0.725,1.018,1.898,1.018,1.898h0.034c0,0-0.121-1.173-0.121-1.898
		v-7.075h2.209v12.252h-2.209l-4.642-7.058c-0.466-0.725-1.018-1.898-1.018-1.898h-0.034c0,0,0.121,1.173,0.121,1.898v7.058h-2.226
		V47.329z"/>
	<path fill="#3FBAC2" d="M342.461,47.329h2.226v12.252h-2.226V47.329z"/>
	<path fill="#3FBAC2" d="M347.655,47.329h7.334v1.915h-5.108v3.209h4.124v1.916h-4.124v3.296h5.384v1.915h-7.61L347.655,47.329
		L347.655,47.329z"/>
	<path fill="#3FBAC2" d="M357.782,56.44c0.725,0.656,1.898,1.294,3.037,1.294c1.105,0,1.795-0.569,1.795-1.398
		c0-2.33-5.712-1.846-5.712-5.66c0-2.157,1.795-3.555,4.176-3.555c1.277,0,2.623,0.432,3.589,1.311l-0.984,1.812
		c-0.673-0.604-1.725-1.07-2.692-1.07c-1.122,0-1.864,0.552-1.864,1.398c0,2.278,5.712,1.691,5.712,5.591
		c0,1.984-1.45,3.624-4.072,3.624c-1.519,0-3.089-0.569-4.194-1.674L357.782,56.44z"/>
</g>
</svg>
